<svg id="Layer_1" data-name="Layer 1" xmlns="http://www.w3.org/2000/svg" viewBox="0 0 385.25 241.65"><defs><style>.cls-1{fill:#16ab39;}</style></defs><path class="cls-1" d="M659.13,383.29c-1.84-11.47-.24-36.07-.24-36.07s3.64,19.44,10.88,22.24A113.2,113.2,0,0,0,484,240.24a103.29,103.29,0,0,1,19.77,32.36,79.53,79.53,0,1,1-8.1,35.93h0A88.56,88.56,0,1,0,332.9,357.67c5.65-2.19,8.51-17.4,8.51-17.4s1.26,19.24-.18,28.22c-1.68,10.49-8.39,25.51-29.56,41.33,28-3.71,42.09-15.83,49-25.13a88.54,88.54,0,0,0,105.49-9.38l-2.25-3.92A127.24,127.24,0,0,1,451.4,341.3a54.72,54.72,0,1,1,10.35-33.46c0,.46,0,.94,0,1.41a112.62,112.62,0,0,0,15,54.74,115.82,115.82,0,0,0,8.61,12.83,113.17,113.17,0,0,0,149,27.18c8.79,11.88,26.84,27.37,62.59,32.1C669.83,415.89,661.27,396.7,659.13,383.29Z" transform="translate(-311.67 -194.45)"/></svg>